# xmcd
#
# Track frame offsets: 
#        150
#        14740
#        28246
#        42306
#        58051
#        70688
#        83057
#        97220
#        111850
#        125077
#        139593
#        151926
#        166563
#        179851
#
# Disc length: 2536 seconds
#
# Revision: 1
# Processed by: cddbd v1.5.2PL0 Copyright (c) Steve Scherf et al.
# Submitted via: ExactAudioCopyFreeDBPlugin 1.0
#
DISCID=c509e60e
DTITLE=Tião Carreiro e Pardinho - Rei do Gado
DYEAR=1961
DGENRE=Sertanejo
TTITLE0=Alma de Boêmio
TTITLE1=Borboleta de Asfalto
TTITLE2=Punhal da Falsidade "Mulher Sem Nome"
TTITLE3=Amigo Sincero
TTITLE4=Teus Beijos
TTITLE5=Despedida
TTITLE6=Tormento
TTITLE7=Nove e Nove
TTITLE8=Rei do Gado
TTITLE9=Urutú Cruzeiro
TTITLE10=Minas Gerais
TTITLE11=Carteiro
TTITLE12=Pagode Em Brasília
TTITLE13=Maria Ciumenta
EXTD=
EXTT0=
EXTT1=
EXTT2=
EXTT3=
EXTT4=
EXTT5=
EXTT6=
EXTT7=
EXTT8=
EXTT9=
EXTT10=
EXTT11=
EXTT12=
EXTT13=
PLAYORDER=
